%
M48
M72
T01C0.01300
T02C0.11811
%
T01
X12800Y39200
X19400Y39500
X25100Y39500
X31100Y39500
X37100Y39500
X42800Y39500
X48800Y39500
X54800Y39500
X60500Y39500
X66500Y39500
X72500Y39500
X78200Y39500
X84200Y39500
X90200Y39500
X95900Y39500
X101900Y39500
X107900Y39500
X113900Y39500
X119600Y39500
X125600Y39500
X131600Y39500
X137300Y39500
X143300Y39500
X149300Y39500
X155000Y39500
X161000Y39500
X167000Y39500
X172700Y39500
X178700Y39500
X184700Y39500
X190700Y39500
X190700Y192500
X184700Y192500
X178700Y192500
X172700Y192500
X167000Y192500
X161000Y192500
X155000Y192500
X149300Y192500
X143300Y192500
X137300Y192500
X131600Y192500
X125600Y192500
X119600Y192500
X113900Y192500
X107900Y192500
X101900Y192500
X95900Y192500
X90200Y192500
X84200Y192500
X78200Y192500
X72500Y192500
X66500Y192500
X60500Y192500
X54800Y192500
X48800Y192500
X42800Y192500
X37100Y192500
X31100Y192500
X25100Y192500
X19400Y192500
X12800Y192500
T02
X54800Y234800
X154100Y234800
M30
