G75*
%MOIN*%
%OFA0B0*%
%FSLAX25Y25*%
%IPPOS*%
%LPD*%
%AMOC8*
5,1,8,0,0,1.08239X$1,22.5*
%
%ADD10C,0.00400*%
%ADD11C,0.00800*%
%ADD12C,0.00300*%
%ADD13C,0.00500*%
D10*
X0010900Y0031900D02*
X0013969Y0031900D01*
X0012435Y0031900D02*
X0012435Y0036504D01*
X0010900Y0034969D01*
X0009769Y0147700D02*
X0006700Y0147700D01*
X0008235Y0147700D02*
X0008235Y0152304D01*
X0006700Y0150769D01*
X0010900Y0212800D02*
X0013969Y0212800D01*
X0012435Y0212800D02*
X0012435Y0217404D01*
X0010900Y0215869D01*
X0192700Y0036337D02*
X0193467Y0037104D01*
X0195002Y0037104D01*
X0195769Y0036337D01*
X0195769Y0035569D01*
X0195002Y0034802D01*
X0195769Y0034035D01*
X0195769Y0033267D01*
X0195002Y0032500D01*
X0193467Y0032500D01*
X0192700Y0033267D01*
X0194235Y0034802D02*
X0195002Y0034802D01*
X0197304Y0036337D02*
X0198071Y0037104D01*
X0199606Y0037104D01*
X0200373Y0036337D01*
X0200373Y0035569D01*
X0197304Y0032500D01*
X0200373Y0032500D01*
X0200973Y0214000D02*
X0197904Y0214000D01*
X0200973Y0217069D01*
X0200973Y0217837D01*
X0200206Y0218604D01*
X0198671Y0218604D01*
X0197904Y0217837D01*
X0196369Y0217837D02*
X0196369Y0217069D01*
X0195602Y0216302D01*
X0196369Y0215535D01*
X0196369Y0214767D01*
X0195602Y0214000D01*
X0194067Y0214000D01*
X0193300Y0214767D01*
X0194835Y0216302D02*
X0195602Y0216302D01*
X0196369Y0217837D02*
X0195602Y0218604D01*
X0194067Y0218604D01*
X0193300Y0217837D01*
D11*
X0010100Y0153800D02*
X0007100Y0153800D01*
X0008600Y0155300D01*
X0010100Y0153800D01*
D12*
X0017947Y0143385D02*
X0020416Y0140916D01*
X0019798Y0141533D02*
X0021650Y0143385D01*
X0023647Y0144599D02*
X0027350Y0147068D01*
X0023647Y0147068D01*
X0023647Y0144599D02*
X0027350Y0144599D01*
X0027967Y0143385D02*
X0027967Y0140916D01*
X0027350Y0139702D02*
X0026116Y0138468D01*
X0026116Y0139085D02*
X0026116Y0137233D01*
X0027350Y0137233D02*
X0023647Y0137233D01*
X0023647Y0139085D01*
X0024264Y0139702D01*
X0025498Y0139702D01*
X0026116Y0139085D01*
X0027350Y0136019D02*
X0023647Y0136019D01*
X0021650Y0135402D02*
X0021650Y0134167D01*
X0021033Y0133550D01*
X0018564Y0133550D01*
X0017947Y0134167D01*
X0017947Y0135402D01*
X0018564Y0136019D01*
X0017947Y0137233D02*
X0021650Y0137233D01*
X0021650Y0139702D01*
X0021650Y0140916D02*
X0017947Y0140916D01*
X0021033Y0136019D02*
X0021650Y0135402D01*
X0023647Y0133550D02*
X0027350Y0133550D01*
X0026116Y0134784D01*
X0027350Y0136019D01*
X0029647Y0135402D02*
X0029647Y0133550D01*
X0033350Y0133550D01*
X0032116Y0133550D02*
X0032116Y0135402D01*
X0031498Y0136019D01*
X0030264Y0136019D01*
X0029647Y0135402D01*
X0029647Y0137233D02*
X0029647Y0139085D01*
X0030264Y0139702D01*
X0032733Y0139702D01*
X0033350Y0139085D01*
X0033350Y0137233D01*
X0029647Y0137233D01*
X0032116Y0134784D02*
X0033350Y0136019D01*
X0035947Y0135402D02*
X0035947Y0134167D01*
X0036564Y0133550D01*
X0039033Y0133550D01*
X0039650Y0134167D01*
X0039650Y0135402D01*
X0039033Y0136019D01*
X0039033Y0137233D02*
X0039650Y0137850D01*
X0039650Y0139085D01*
X0039033Y0139702D01*
X0038416Y0139702D01*
X0037798Y0139085D01*
X0037798Y0137850D01*
X0037181Y0137233D01*
X0036564Y0137233D01*
X0035947Y0137850D01*
X0035947Y0139085D01*
X0036564Y0139702D01*
X0033967Y0140916D02*
X0033967Y0143385D01*
X0033350Y0144599D02*
X0029647Y0144599D01*
X0033350Y0147068D01*
X0029647Y0147068D01*
X0035947Y0147068D02*
X0039650Y0147068D01*
X0035947Y0144599D01*
X0039650Y0144599D01*
X0040267Y0143385D02*
X0040267Y0140916D01*
X0041647Y0139085D02*
X0042264Y0139702D01*
X0044733Y0137233D01*
X0045350Y0137850D01*
X0045350Y0139085D01*
X0044733Y0139702D01*
X0042264Y0139702D01*
X0041647Y0139085D02*
X0041647Y0137850D01*
X0042264Y0137233D01*
X0044733Y0137233D01*
X0045350Y0136019D02*
X0042881Y0136019D01*
X0041647Y0134784D01*
X0042881Y0133550D01*
X0045350Y0133550D01*
X0043498Y0133550D02*
X0043498Y0136019D01*
X0047347Y0134784D02*
X0048581Y0136019D01*
X0051050Y0136019D01*
X0051050Y0137233D02*
X0051050Y0139702D01*
X0051050Y0138468D02*
X0047347Y0138468D01*
X0048581Y0137233D01*
X0049198Y0136019D02*
X0049198Y0133550D01*
X0048581Y0133550D02*
X0047347Y0134784D01*
X0048581Y0133550D02*
X0051050Y0133550D01*
X0053347Y0134784D02*
X0054581Y0136019D01*
X0057050Y0136019D01*
X0057050Y0137233D02*
X0054581Y0139702D01*
X0053964Y0139702D01*
X0053347Y0139085D01*
X0053347Y0137850D01*
X0053964Y0137233D01*
X0055198Y0136019D02*
X0055198Y0133550D01*
X0054581Y0133550D02*
X0053347Y0134784D01*
X0054581Y0133550D02*
X0057050Y0133550D01*
X0059347Y0134784D02*
X0060581Y0136019D01*
X0063050Y0136019D01*
X0062433Y0137233D02*
X0063050Y0137850D01*
X0063050Y0139085D01*
X0062433Y0139702D01*
X0061816Y0139702D01*
X0061198Y0139085D01*
X0061198Y0138468D01*
X0061198Y0139085D02*
X0060581Y0139702D01*
X0059964Y0139702D01*
X0059347Y0139085D01*
X0059347Y0137850D01*
X0059964Y0137233D01*
X0061198Y0136019D02*
X0061198Y0133550D01*
X0060581Y0133550D02*
X0059347Y0134784D01*
X0060581Y0133550D02*
X0063050Y0133550D01*
X0065047Y0134784D02*
X0066281Y0136019D01*
X0068750Y0136019D01*
X0066898Y0136019D02*
X0066898Y0133550D01*
X0066281Y0133550D02*
X0065047Y0134784D01*
X0066281Y0133550D02*
X0068750Y0133550D01*
X0071047Y0134784D02*
X0072281Y0136019D01*
X0074750Y0136019D01*
X0074133Y0137233D02*
X0074750Y0137850D01*
X0074750Y0139085D01*
X0074133Y0139702D01*
X0072898Y0139702D01*
X0072281Y0139085D01*
X0072281Y0138468D01*
X0072898Y0137233D01*
X0071047Y0137233D01*
X0071047Y0139702D01*
X0068750Y0139085D02*
X0065047Y0139085D01*
X0066898Y0137233D01*
X0066898Y0139702D01*
X0071047Y0134784D02*
X0072281Y0133550D01*
X0074750Y0133550D01*
X0072898Y0133550D02*
X0072898Y0136019D01*
X0076747Y0134784D02*
X0077981Y0133550D01*
X0080450Y0133550D01*
X0078598Y0133550D02*
X0078598Y0136019D01*
X0077981Y0136019D02*
X0080450Y0136019D01*
X0079833Y0137233D02*
X0080450Y0137850D01*
X0080450Y0139085D01*
X0079833Y0139702D01*
X0079216Y0139702D01*
X0078598Y0139085D01*
X0078598Y0137233D01*
X0079833Y0137233D01*
X0078598Y0137233D02*
X0077364Y0138468D01*
X0076747Y0139702D01*
X0077981Y0136019D02*
X0076747Y0134784D01*
X0082747Y0134784D02*
X0083981Y0136019D01*
X0086450Y0136019D01*
X0086450Y0137233D02*
X0085833Y0137233D01*
X0083364Y0139702D01*
X0082747Y0139702D01*
X0082747Y0137233D01*
X0084598Y0136019D02*
X0084598Y0133550D01*
X0083981Y0133550D02*
X0082747Y0134784D01*
X0083981Y0133550D02*
X0086450Y0133550D01*
X0088147Y0134784D02*
X0089381Y0136019D01*
X0091850Y0136019D01*
X0091233Y0137233D02*
X0091850Y0137850D01*
X0091850Y0139085D01*
X0091233Y0139702D01*
X0090616Y0139702D01*
X0089998Y0139085D01*
X0089998Y0137850D01*
X0089381Y0137233D01*
X0088764Y0137233D01*
X0088147Y0137850D01*
X0088147Y0139085D01*
X0088764Y0139702D01*
X0089381Y0139702D01*
X0089998Y0139085D01*
X0089998Y0137850D02*
X0090616Y0137233D01*
X0091233Y0137233D01*
X0089998Y0136019D02*
X0089998Y0133550D01*
X0089381Y0133550D02*
X0088147Y0134784D01*
X0089381Y0133550D02*
X0091850Y0133550D01*
X0094447Y0134784D02*
X0095681Y0136019D01*
X0098150Y0136019D01*
X0097533Y0137233D02*
X0098150Y0137850D01*
X0098150Y0139085D01*
X0097533Y0139702D01*
X0095064Y0139702D01*
X0094447Y0139085D01*
X0094447Y0137850D01*
X0095064Y0137233D01*
X0095681Y0137233D01*
X0096298Y0137850D01*
X0096298Y0139702D01*
X0096298Y0136019D02*
X0096298Y0133550D01*
X0095681Y0133550D02*
X0094447Y0134784D01*
X0095681Y0133550D02*
X0098150Y0133550D01*
X0100447Y0134784D02*
X0101681Y0136019D01*
X0104150Y0136019D01*
X0104150Y0137233D02*
X0104150Y0139702D01*
X0104150Y0138468D02*
X0100447Y0138468D01*
X0101681Y0137233D01*
X0102298Y0136019D02*
X0102298Y0133550D01*
X0101681Y0133550D02*
X0100447Y0134784D01*
X0101681Y0133550D02*
X0104150Y0133550D01*
X0106447Y0134784D02*
X0107681Y0136019D01*
X0110150Y0136019D01*
X0110150Y0137233D02*
X0110150Y0139702D01*
X0110150Y0140916D02*
X0110150Y0143385D01*
X0110150Y0142151D02*
X0106447Y0142151D01*
X0107681Y0140916D01*
X0106447Y0138468D02*
X0110150Y0138468D01*
X0112447Y0138468D02*
X0113681Y0137233D01*
X0113681Y0136019D02*
X0116150Y0136019D01*
X0116150Y0137233D02*
X0116150Y0139702D01*
X0116150Y0140916D02*
X0113681Y0143385D01*
X0113064Y0143385D01*
X0112447Y0142768D01*
X0112447Y0141533D01*
X0113064Y0140916D01*
X0112447Y0138468D02*
X0116150Y0138468D01*
X0118147Y0138468D02*
X0121850Y0138468D01*
X0121850Y0139702D02*
X0121850Y0137233D01*
X0121850Y0136019D02*
X0119381Y0136019D01*
X0118147Y0134784D01*
X0119381Y0133550D01*
X0121850Y0133550D01*
X0119998Y0133550D02*
X0119998Y0136019D01*
X0119381Y0137233D02*
X0118147Y0138468D01*
X0118764Y0140916D02*
X0118147Y0141533D01*
X0118147Y0142768D01*
X0118764Y0143385D01*
X0119381Y0143385D01*
X0119998Y0142768D01*
X0120616Y0143385D01*
X0121233Y0143385D01*
X0121850Y0142768D01*
X0121850Y0141533D01*
X0121233Y0140916D01*
X0119998Y0142151D02*
X0119998Y0142768D01*
X0116150Y0143385D02*
X0116150Y0140916D01*
X0114298Y0136019D02*
X0114298Y0133550D01*
X0113681Y0133550D02*
X0112447Y0134784D01*
X0113681Y0136019D01*
X0113681Y0133550D02*
X0116150Y0133550D01*
X0110150Y0133550D02*
X0107681Y0133550D01*
X0106447Y0134784D01*
X0108298Y0133550D02*
X0108298Y0136019D01*
X0107681Y0137233D02*
X0106447Y0138468D01*
X0103533Y0140916D02*
X0104150Y0141533D01*
X0104150Y0142768D01*
X0103533Y0143385D01*
X0101064Y0143385D01*
X0103533Y0140916D01*
X0101064Y0140916D01*
X0100447Y0141533D01*
X0100447Y0142768D01*
X0101064Y0143385D01*
X0123847Y0142768D02*
X0125698Y0140916D01*
X0125698Y0143385D01*
X0123847Y0142768D02*
X0127550Y0142768D01*
X0129847Y0143385D02*
X0129847Y0140916D01*
X0131698Y0140916D01*
X0131081Y0142151D01*
X0131081Y0142768D01*
X0131698Y0143385D01*
X0132933Y0143385D01*
X0133550Y0142768D01*
X0133550Y0141533D01*
X0132933Y0140916D01*
X0133550Y0139702D02*
X0133550Y0137233D01*
X0133550Y0136019D02*
X0131081Y0136019D01*
X0129847Y0134784D01*
X0131081Y0133550D01*
X0133550Y0133550D01*
X0131698Y0133550D02*
X0131698Y0136019D01*
X0131081Y0137233D02*
X0129847Y0138468D01*
X0133550Y0138468D01*
X0135847Y0139085D02*
X0136464Y0139702D01*
X0138933Y0137233D01*
X0139550Y0137850D01*
X0139550Y0139085D01*
X0138933Y0139702D01*
X0136464Y0139702D01*
X0135847Y0139085D02*
X0135847Y0137850D01*
X0136464Y0137233D01*
X0138933Y0137233D01*
X0138933Y0136019D02*
X0136464Y0136019D01*
X0135847Y0135402D01*
X0135847Y0133550D01*
X0139550Y0133550D01*
X0139550Y0135402D01*
X0138933Y0136019D01*
X0141847Y0135402D02*
X0141847Y0133550D01*
X0145550Y0133550D01*
X0145550Y0135402D01*
X0144933Y0136019D01*
X0142464Y0136019D01*
X0141847Y0135402D01*
X0143081Y0137233D02*
X0141847Y0138468D01*
X0145550Y0138468D01*
X0145550Y0139702D02*
X0145550Y0137233D01*
X0147847Y0137850D02*
X0148464Y0137233D01*
X0147847Y0137850D02*
X0147847Y0139085D01*
X0148464Y0139702D01*
X0149081Y0139702D01*
X0151550Y0137233D01*
X0151550Y0139702D01*
X0153547Y0139085D02*
X0154164Y0139702D01*
X0154781Y0139702D01*
X0155398Y0139085D01*
X0156016Y0139702D01*
X0156633Y0139702D01*
X0157250Y0139085D01*
X0157250Y0137850D01*
X0156633Y0137233D01*
X0156633Y0136019D02*
X0154164Y0136019D01*
X0153547Y0135402D01*
X0153547Y0133550D01*
X0157250Y0133550D01*
X0157250Y0135402D01*
X0156633Y0136019D01*
X0155398Y0138468D02*
X0155398Y0139085D01*
X0153547Y0139085D02*
X0153547Y0137850D01*
X0154164Y0137233D01*
X0151550Y0135402D02*
X0151550Y0133550D01*
X0147847Y0133550D01*
X0147847Y0135402D01*
X0148464Y0136019D01*
X0150933Y0136019D01*
X0151550Y0135402D01*
X0159547Y0135402D02*
X0159547Y0133550D01*
X0163250Y0133550D01*
X0163250Y0135402D01*
X0162633Y0136019D01*
X0160164Y0136019D01*
X0159547Y0135402D01*
X0161398Y0137233D02*
X0159547Y0139085D01*
X0163250Y0139085D01*
X0161398Y0139702D02*
X0161398Y0137233D01*
X0165547Y0137233D02*
X0167398Y0137233D01*
X0166781Y0138468D01*
X0166781Y0139085D01*
X0167398Y0139702D01*
X0168633Y0139702D01*
X0169250Y0139085D01*
X0169250Y0137850D01*
X0168633Y0137233D01*
X0168633Y0136019D02*
X0166164Y0136019D01*
X0165547Y0135402D01*
X0165547Y0133550D01*
X0169250Y0133550D01*
X0169250Y0135402D01*
X0168633Y0136019D01*
X0171247Y0135402D02*
X0171247Y0133550D01*
X0174950Y0133550D01*
X0174950Y0135402D01*
X0174333Y0136019D01*
X0171864Y0136019D01*
X0171247Y0135402D01*
X0173098Y0137233D02*
X0171864Y0138468D01*
X0171247Y0139702D01*
X0173098Y0139085D02*
X0173098Y0137233D01*
X0174333Y0137233D01*
X0174950Y0137850D01*
X0174950Y0139085D01*
X0174333Y0139702D01*
X0173716Y0139702D01*
X0173098Y0139085D01*
X0177247Y0139702D02*
X0177247Y0137233D01*
X0177864Y0136019D02*
X0177247Y0135402D01*
X0177247Y0133550D01*
X0180950Y0133550D01*
X0180950Y0135402D01*
X0180333Y0136019D01*
X0177864Y0136019D01*
X0180333Y0137233D02*
X0177864Y0139702D01*
X0177247Y0139702D01*
X0180333Y0137233D02*
X0180950Y0137233D01*
X0183247Y0137850D02*
X0183864Y0137233D01*
X0184481Y0137233D01*
X0185098Y0137850D01*
X0185098Y0139085D01*
X0185716Y0139702D01*
X0186333Y0139702D01*
X0186950Y0139085D01*
X0186950Y0137850D01*
X0186333Y0137233D01*
X0186950Y0136019D02*
X0185716Y0134784D01*
X0185716Y0135402D02*
X0185716Y0133550D01*
X0186950Y0133550D02*
X0183247Y0133550D01*
X0183247Y0135402D01*
X0183864Y0136019D01*
X0185098Y0136019D01*
X0185716Y0135402D01*
X0183247Y0137850D02*
X0183247Y0139085D01*
X0183864Y0139702D01*
X0183247Y0140916D02*
X0183247Y0143385D01*
X0183247Y0142151D02*
X0186950Y0142151D01*
X0188947Y0142768D02*
X0189564Y0143385D01*
X0192033Y0143385D01*
X0192650Y0142768D01*
X0192650Y0140916D01*
X0188947Y0140916D01*
X0188947Y0142768D01*
X0187567Y0144599D02*
X0187567Y0147068D01*
X0186950Y0148283D02*
X0183247Y0148283D01*
X0186950Y0150751D01*
X0183247Y0150751D01*
X0188947Y0150738D02*
X0192650Y0153207D01*
X0188947Y0153207D01*
X0188947Y0150738D02*
X0192650Y0150738D01*
X0192650Y0149517D02*
X0192650Y0148283D01*
X0192650Y0148900D02*
X0188947Y0148900D01*
X0188947Y0148283D02*
X0188947Y0149517D01*
X0193267Y0147068D02*
X0193267Y0144599D01*
X0195547Y0142768D02*
X0195547Y0140916D01*
X0199250Y0140916D01*
X0199250Y0142768D01*
X0198633Y0143385D01*
X0196164Y0143385D01*
X0195547Y0142768D01*
X0195547Y0139702D02*
X0199250Y0139702D01*
X0195547Y0137233D01*
X0199250Y0137233D01*
X0198633Y0136019D02*
X0199250Y0135402D01*
X0199250Y0134167D01*
X0198633Y0133550D01*
X0196164Y0133550D01*
X0195547Y0134167D01*
X0195547Y0135402D01*
X0196164Y0136019D01*
X0197398Y0136019D02*
X0197398Y0134784D01*
X0197398Y0136019D02*
X0198633Y0136019D01*
X0192650Y0136019D02*
X0190181Y0136019D01*
X0188947Y0134784D01*
X0190181Y0133550D01*
X0192650Y0133550D01*
X0190798Y0133550D02*
X0190798Y0136019D01*
X0192033Y0137233D02*
X0188947Y0137233D01*
X0188947Y0139702D02*
X0192033Y0139702D01*
X0192650Y0139085D01*
X0192650Y0137850D01*
X0192033Y0137233D01*
X0165547Y0137233D02*
X0165547Y0139702D01*
X0161966Y0090278D02*
X0160999Y0090278D01*
X0160515Y0089794D01*
X0160515Y0089311D01*
X0160999Y0088343D01*
X0159548Y0088343D01*
X0159548Y0090278D01*
X0160031Y0087331D02*
X0159548Y0086848D01*
X0159548Y0085880D01*
X0160031Y0085397D01*
X0160031Y0084385D02*
X0159548Y0083901D01*
X0159548Y0082450D01*
X0162450Y0082450D01*
X0161483Y0082450D02*
X0161483Y0083901D01*
X0160999Y0084385D01*
X0160031Y0084385D01*
X0161483Y0083417D02*
X0162450Y0084385D01*
X0162450Y0085397D02*
X0160515Y0087331D01*
X0160031Y0087331D01*
X0161966Y0088343D02*
X0162450Y0088827D01*
X0162450Y0089794D01*
X0161966Y0090278D01*
X0162450Y0087331D02*
X0162450Y0085397D01*
X0171348Y0085880D02*
X0171831Y0085397D01*
X0171348Y0085880D02*
X0171348Y0086848D01*
X0171831Y0087331D01*
X0172315Y0087331D01*
X0174250Y0085397D01*
X0174250Y0087331D01*
X0174250Y0088343D02*
X0173766Y0088343D01*
X0171831Y0090278D01*
X0171348Y0090278D01*
X0171348Y0088343D01*
X0171831Y0084385D02*
X0172799Y0084385D01*
X0173283Y0083901D01*
X0173283Y0082450D01*
X0174250Y0082450D02*
X0171348Y0082450D01*
X0171348Y0083901D01*
X0171831Y0084385D01*
X0173283Y0083417D02*
X0174250Y0084385D01*
X0183148Y0085280D02*
X0183631Y0084797D01*
X0183148Y0085280D02*
X0183148Y0086248D01*
X0183631Y0086731D01*
X0184115Y0086731D01*
X0186050Y0084797D01*
X0186050Y0086731D01*
X0185566Y0087743D02*
X0186050Y0088227D01*
X0186050Y0089194D01*
X0185566Y0089678D01*
X0183631Y0089678D01*
X0183148Y0089194D01*
X0183148Y0088227D01*
X0183631Y0087743D01*
X0184115Y0087743D01*
X0184599Y0088227D01*
X0184599Y0089678D01*
X0184599Y0083785D02*
X0183631Y0083785D01*
X0183148Y0083301D01*
X0183148Y0081850D01*
X0186050Y0081850D01*
X0185083Y0081850D02*
X0185083Y0083301D01*
X0184599Y0083785D01*
X0185083Y0082817D02*
X0186050Y0083785D01*
X0179366Y0053378D02*
X0179850Y0052894D01*
X0179850Y0051927D01*
X0179366Y0051443D01*
X0178883Y0051443D01*
X0178399Y0051927D01*
X0178399Y0052894D01*
X0178883Y0053378D01*
X0179366Y0053378D01*
X0178399Y0052894D02*
X0177915Y0053378D01*
X0177431Y0053378D01*
X0176948Y0052894D01*
X0176948Y0051927D01*
X0177431Y0051443D01*
X0177915Y0051443D01*
X0178399Y0051927D01*
X0177915Y0050431D02*
X0179850Y0048497D01*
X0179850Y0050431D01*
X0177915Y0050431D02*
X0177431Y0050431D01*
X0176948Y0049948D01*
X0176948Y0048980D01*
X0177431Y0048497D01*
X0177431Y0047485D02*
X0178399Y0047485D01*
X0178883Y0047001D01*
X0178883Y0045550D01*
X0179850Y0045550D02*
X0176948Y0045550D01*
X0176948Y0047001D01*
X0177431Y0047485D01*
X0178883Y0046517D02*
X0179850Y0047485D01*
X0168050Y0047485D02*
X0167083Y0046517D01*
X0167083Y0047001D02*
X0167083Y0045550D01*
X0168050Y0045550D02*
X0165148Y0045550D01*
X0165148Y0047001D01*
X0165631Y0047485D01*
X0166599Y0047485D01*
X0167083Y0047001D01*
X0168050Y0048497D02*
X0166115Y0050431D01*
X0165631Y0050431D01*
X0165148Y0049948D01*
X0165148Y0048980D01*
X0165631Y0048497D01*
X0166599Y0051443D02*
X0165631Y0052411D01*
X0165148Y0053378D01*
X0166599Y0052894D02*
X0166599Y0051443D01*
X0167566Y0051443D01*
X0168050Y0051927D01*
X0168050Y0052894D01*
X0167566Y0053378D01*
X0167083Y0053378D01*
X0166599Y0052894D01*
X0168050Y0050431D02*
X0168050Y0048497D01*
X0156250Y0048497D02*
X0154315Y0050431D01*
X0153831Y0050431D01*
X0153348Y0049948D01*
X0153348Y0048980D01*
X0153831Y0048497D01*
X0153831Y0047485D02*
X0154799Y0047485D01*
X0155283Y0047001D01*
X0155283Y0045550D01*
X0156250Y0045550D02*
X0153348Y0045550D01*
X0153348Y0047001D01*
X0153831Y0047485D01*
X0155283Y0046517D02*
X0156250Y0047485D01*
X0156250Y0048497D02*
X0156250Y0050431D01*
X0154799Y0051443D02*
X0154799Y0053378D01*
X0156250Y0052894D02*
X0153348Y0052894D01*
X0154799Y0051443D01*
X0144450Y0051443D02*
X0142515Y0053378D01*
X0142031Y0053378D01*
X0141548Y0052894D01*
X0141548Y0051927D01*
X0142031Y0051443D01*
X0142031Y0050431D02*
X0141548Y0049948D01*
X0141548Y0048980D01*
X0142031Y0048497D01*
X0142031Y0047485D02*
X0142999Y0047485D01*
X0143483Y0047001D01*
X0143483Y0045550D01*
X0144450Y0045550D02*
X0141548Y0045550D01*
X0141548Y0047001D01*
X0142031Y0047485D01*
X0143483Y0046517D02*
X0144450Y0047485D01*
X0144450Y0048497D02*
X0142515Y0050431D01*
X0142031Y0050431D01*
X0144450Y0050431D02*
X0144450Y0048497D01*
X0144450Y0051443D02*
X0144450Y0053378D01*
X0132650Y0052894D02*
X0132650Y0051927D01*
X0132166Y0051443D01*
X0130231Y0053378D01*
X0132166Y0053378D01*
X0132650Y0052894D01*
X0132166Y0051443D02*
X0130231Y0051443D01*
X0129748Y0051927D01*
X0129748Y0052894D01*
X0130231Y0053378D01*
X0130231Y0050431D02*
X0129748Y0049948D01*
X0129748Y0048980D01*
X0130231Y0048497D01*
X0130231Y0047485D02*
X0131199Y0047485D01*
X0131683Y0047001D01*
X0131683Y0045550D01*
X0132650Y0045550D02*
X0129748Y0045550D01*
X0129748Y0047001D01*
X0130231Y0047485D01*
X0131683Y0046517D02*
X0132650Y0047485D01*
X0132650Y0048497D02*
X0130715Y0050431D01*
X0130231Y0050431D01*
X0132650Y0050431D02*
X0132650Y0048497D01*
X0120850Y0048497D02*
X0120850Y0050431D01*
X0120850Y0049464D02*
X0117948Y0049464D01*
X0118915Y0048497D01*
X0118431Y0047485D02*
X0119399Y0047485D01*
X0119883Y0047001D01*
X0119883Y0045550D01*
X0120850Y0045550D02*
X0117948Y0045550D01*
X0117948Y0047001D01*
X0118431Y0047485D01*
X0119883Y0046517D02*
X0120850Y0047485D01*
X0120366Y0051443D02*
X0119883Y0051443D01*
X0119399Y0051927D01*
X0119399Y0052894D01*
X0119883Y0053378D01*
X0120366Y0053378D01*
X0120850Y0052894D01*
X0120850Y0051927D01*
X0120366Y0051443D01*
X0119399Y0051927D02*
X0118915Y0051443D01*
X0118431Y0051443D01*
X0117948Y0051927D01*
X0117948Y0052894D01*
X0118431Y0053378D01*
X0118915Y0053378D01*
X0119399Y0052894D01*
X0109050Y0052894D02*
X0109050Y0051927D01*
X0108566Y0051443D01*
X0107599Y0051443D01*
X0107599Y0052894D01*
X0108083Y0053378D01*
X0108566Y0053378D01*
X0109050Y0052894D01*
X0107599Y0051443D02*
X0106631Y0052411D01*
X0106148Y0053378D01*
X0109050Y0050431D02*
X0109050Y0048497D01*
X0109050Y0049464D02*
X0106148Y0049464D01*
X0107115Y0048497D01*
X0106631Y0047485D02*
X0107599Y0047485D01*
X0108083Y0047001D01*
X0108083Y0045550D01*
X0109050Y0045550D02*
X0106148Y0045550D01*
X0106148Y0047001D01*
X0106631Y0047485D01*
X0108083Y0046517D02*
X0109050Y0047485D01*
X0097250Y0047485D02*
X0096283Y0046517D01*
X0096283Y0047001D02*
X0096283Y0045550D01*
X0097250Y0045550D02*
X0094348Y0045550D01*
X0094348Y0047001D01*
X0094831Y0047485D01*
X0095799Y0047485D01*
X0096283Y0047001D01*
X0097250Y0048497D02*
X0097250Y0050431D01*
X0097250Y0049464D02*
X0094348Y0049464D01*
X0095315Y0048497D01*
X0095799Y0051443D02*
X0095799Y0053378D01*
X0097250Y0052894D02*
X0094348Y0052894D01*
X0095799Y0051443D01*
X0085450Y0051443D02*
X0083515Y0053378D01*
X0083031Y0053378D01*
X0082548Y0052894D01*
X0082548Y0051927D01*
X0083031Y0051443D01*
X0082548Y0049464D02*
X0085450Y0049464D01*
X0085450Y0048497D02*
X0085450Y0050431D01*
X0085450Y0051443D02*
X0085450Y0053378D01*
X0082548Y0049464D02*
X0083515Y0048497D01*
X0083031Y0047485D02*
X0083999Y0047485D01*
X0084483Y0047001D01*
X0084483Y0045550D01*
X0085450Y0045550D02*
X0082548Y0045550D01*
X0082548Y0047001D01*
X0083031Y0047485D01*
X0084483Y0046517D02*
X0085450Y0047485D01*
X0073650Y0047485D02*
X0072683Y0046517D01*
X0072683Y0047001D02*
X0072683Y0045550D01*
X0073650Y0045550D02*
X0070748Y0045550D01*
X0070748Y0047001D01*
X0071231Y0047485D01*
X0072199Y0047485D01*
X0072683Y0047001D01*
X0073650Y0048497D02*
X0073650Y0050431D01*
X0073650Y0049464D02*
X0070748Y0049464D01*
X0071715Y0048497D01*
X0071231Y0051443D02*
X0070748Y0051927D01*
X0070748Y0052894D01*
X0071231Y0053378D01*
X0073166Y0051443D01*
X0073650Y0051927D01*
X0073650Y0052894D01*
X0073166Y0053378D01*
X0071231Y0053378D01*
X0071231Y0051443D02*
X0073166Y0051443D01*
X0061850Y0049948D02*
X0061850Y0048980D01*
X0061366Y0048497D01*
X0060883Y0048497D01*
X0060399Y0048980D01*
X0060399Y0049948D01*
X0060883Y0050431D01*
X0061366Y0050431D01*
X0061850Y0049948D01*
X0060399Y0049948D02*
X0059915Y0050431D01*
X0059431Y0050431D01*
X0058948Y0049948D01*
X0058948Y0048980D01*
X0059431Y0048497D01*
X0059915Y0048497D01*
X0060399Y0048980D01*
X0060399Y0047485D02*
X0060883Y0047001D01*
X0060883Y0045550D01*
X0061850Y0045550D02*
X0058948Y0045550D01*
X0058948Y0047001D01*
X0059431Y0047485D01*
X0060399Y0047485D01*
X0060883Y0046517D02*
X0061850Y0047485D01*
X0050050Y0047485D02*
X0049083Y0046517D01*
X0049083Y0047001D02*
X0049083Y0045550D01*
X0050050Y0045550D02*
X0047148Y0045550D01*
X0047148Y0047001D01*
X0047631Y0047485D01*
X0048599Y0047485D01*
X0049083Y0047001D01*
X0049566Y0048497D02*
X0050050Y0048980D01*
X0050050Y0049948D01*
X0049566Y0050431D01*
X0049083Y0050431D01*
X0048599Y0049948D01*
X0048599Y0048497D01*
X0049566Y0048497D01*
X0048599Y0048497D02*
X0047631Y0049464D01*
X0047148Y0050431D01*
X0038250Y0049948D02*
X0035348Y0049948D01*
X0036799Y0048497D01*
X0036799Y0050431D01*
X0036799Y0047485D02*
X0037283Y0047001D01*
X0037283Y0045550D01*
X0038250Y0045550D02*
X0035348Y0045550D01*
X0035348Y0047001D01*
X0035831Y0047485D01*
X0036799Y0047485D01*
X0037283Y0046517D02*
X0038250Y0047485D01*
X0026450Y0047485D02*
X0025483Y0046517D01*
X0025483Y0047001D02*
X0025483Y0045550D01*
X0026450Y0045550D02*
X0023548Y0045550D01*
X0023548Y0047001D01*
X0024031Y0047485D01*
X0024999Y0047485D01*
X0025483Y0047001D01*
X0026450Y0048497D02*
X0024515Y0050431D01*
X0024031Y0050431D01*
X0023548Y0049948D01*
X0023548Y0048980D01*
X0024031Y0048497D01*
X0026450Y0048497D02*
X0026450Y0050431D01*
X0029148Y0082450D02*
X0029148Y0083901D01*
X0029631Y0084385D01*
X0030599Y0084385D01*
X0031083Y0083901D01*
X0031083Y0082450D01*
X0032050Y0082450D02*
X0029148Y0082450D01*
X0031083Y0083417D02*
X0032050Y0084385D01*
X0031566Y0085397D02*
X0032050Y0085880D01*
X0032050Y0086848D01*
X0031566Y0087331D01*
X0031083Y0087331D01*
X0030599Y0086848D01*
X0030599Y0086364D01*
X0030599Y0086848D02*
X0030115Y0087331D01*
X0029631Y0087331D01*
X0029148Y0086848D01*
X0029148Y0085880D01*
X0029631Y0085397D01*
X0020250Y0085397D02*
X0020250Y0087331D01*
X0020250Y0086364D02*
X0017348Y0086364D01*
X0018315Y0085397D01*
X0017831Y0084385D02*
X0018799Y0084385D01*
X0019283Y0083901D01*
X0019283Y0082450D01*
X0020250Y0082450D02*
X0017348Y0082450D01*
X0017348Y0083901D01*
X0017831Y0084385D01*
X0019283Y0083417D02*
X0020250Y0084385D01*
X0040948Y0083901D02*
X0041431Y0084385D01*
X0042399Y0084385D01*
X0042883Y0083901D01*
X0042883Y0082450D01*
X0043850Y0082450D02*
X0040948Y0082450D01*
X0040948Y0083901D01*
X0040948Y0085397D02*
X0042399Y0085397D01*
X0041915Y0086364D01*
X0041915Y0086848D01*
X0042399Y0087331D01*
X0043366Y0087331D01*
X0043850Y0086848D01*
X0043850Y0085880D01*
X0043366Y0085397D01*
X0043850Y0084385D02*
X0042883Y0083417D01*
X0040948Y0085397D02*
X0040948Y0087331D01*
X0053348Y0087331D02*
X0053831Y0087331D01*
X0055766Y0085397D01*
X0056250Y0085397D01*
X0056250Y0084385D02*
X0055283Y0083417D01*
X0055283Y0083901D02*
X0055283Y0082450D01*
X0056250Y0082450D02*
X0053348Y0082450D01*
X0053348Y0083901D01*
X0053831Y0084385D01*
X0054799Y0084385D01*
X0055283Y0083901D01*
X0053348Y0085397D02*
X0053348Y0087331D01*
X0065148Y0086848D02*
X0065148Y0085880D01*
X0065631Y0085397D01*
X0066115Y0085397D01*
X0066599Y0085880D01*
X0066599Y0087331D01*
X0067566Y0087331D02*
X0065631Y0087331D01*
X0065148Y0086848D01*
X0067566Y0087331D02*
X0068050Y0086848D01*
X0068050Y0085880D01*
X0067566Y0085397D01*
X0068050Y0084385D02*
X0067083Y0083417D01*
X0067083Y0083901D02*
X0067083Y0082450D01*
X0068050Y0082450D02*
X0065148Y0082450D01*
X0065148Y0083901D01*
X0065631Y0084385D01*
X0066599Y0084385D01*
X0067083Y0083901D01*
X0076948Y0083901D02*
X0077431Y0084385D01*
X0078399Y0084385D01*
X0078883Y0083901D01*
X0078883Y0082450D01*
X0079850Y0082450D02*
X0076948Y0082450D01*
X0076948Y0083901D01*
X0077915Y0085397D02*
X0076948Y0086364D01*
X0079850Y0086364D01*
X0079850Y0085397D02*
X0079850Y0087331D01*
X0079850Y0088343D02*
X0079850Y0090278D01*
X0079850Y0089311D02*
X0076948Y0089311D01*
X0077915Y0088343D01*
X0079850Y0084385D02*
X0078883Y0083417D01*
X0088748Y0083901D02*
X0089231Y0084385D01*
X0090199Y0084385D01*
X0090683Y0083901D01*
X0090683Y0082450D01*
X0091650Y0082450D02*
X0088748Y0082450D01*
X0088748Y0083901D01*
X0089715Y0085397D02*
X0088748Y0086364D01*
X0091650Y0086364D01*
X0091650Y0085397D02*
X0091650Y0087331D01*
X0091166Y0088343D02*
X0091650Y0088827D01*
X0091650Y0089794D01*
X0091166Y0090278D01*
X0090683Y0090278D01*
X0090199Y0089794D01*
X0090199Y0089311D01*
X0090199Y0089794D02*
X0089715Y0090278D01*
X0089231Y0090278D01*
X0088748Y0089794D01*
X0088748Y0088827D01*
X0089231Y0088343D01*
X0091650Y0084385D02*
X0090683Y0083417D01*
X0100548Y0083901D02*
X0101031Y0084385D01*
X0101999Y0084385D01*
X0102483Y0083901D01*
X0102483Y0082450D01*
X0103450Y0082450D02*
X0100548Y0082450D01*
X0100548Y0083901D01*
X0101515Y0085397D02*
X0100548Y0086364D01*
X0103450Y0086364D01*
X0103450Y0085397D02*
X0103450Y0087331D01*
X0102966Y0088343D02*
X0103450Y0088827D01*
X0103450Y0089794D01*
X0102966Y0090278D01*
X0101999Y0090278D01*
X0101515Y0089794D01*
X0101515Y0089311D01*
X0101999Y0088343D01*
X0100548Y0088343D01*
X0100548Y0090278D01*
X0103450Y0084385D02*
X0102483Y0083417D01*
X0112348Y0083901D02*
X0112831Y0084385D01*
X0113799Y0084385D01*
X0114283Y0083901D01*
X0114283Y0082450D01*
X0115250Y0082450D02*
X0112348Y0082450D01*
X0112348Y0083901D01*
X0113315Y0085397D02*
X0112348Y0086364D01*
X0115250Y0086364D01*
X0115250Y0085397D02*
X0115250Y0087331D01*
X0115250Y0088343D02*
X0114766Y0088343D01*
X0112831Y0090278D01*
X0112348Y0090278D01*
X0112348Y0088343D01*
X0115250Y0084385D02*
X0114283Y0083417D01*
X0123548Y0083901D02*
X0124031Y0084385D01*
X0124999Y0084385D01*
X0125483Y0083901D01*
X0125483Y0082450D01*
X0126450Y0082450D02*
X0123548Y0082450D01*
X0123548Y0083901D01*
X0124515Y0085397D02*
X0123548Y0086364D01*
X0126450Y0086364D01*
X0126450Y0085397D02*
X0126450Y0087331D01*
X0125966Y0088343D02*
X0126450Y0088827D01*
X0126450Y0089794D01*
X0125966Y0090278D01*
X0124031Y0090278D01*
X0123548Y0089794D01*
X0123548Y0088827D01*
X0124031Y0088343D01*
X0124515Y0088343D01*
X0124999Y0088827D01*
X0124999Y0090278D01*
X0126450Y0084385D02*
X0125483Y0083417D01*
X0135348Y0083901D02*
X0135831Y0084385D01*
X0136799Y0084385D01*
X0137283Y0083901D01*
X0137283Y0082450D01*
X0138250Y0082450D02*
X0135348Y0082450D01*
X0135348Y0083901D01*
X0135831Y0085397D02*
X0135348Y0085880D01*
X0135348Y0086848D01*
X0135831Y0087331D01*
X0136315Y0087331D01*
X0138250Y0085397D01*
X0138250Y0087331D01*
X0138250Y0088343D02*
X0138250Y0090278D01*
X0138250Y0089311D02*
X0135348Y0089311D01*
X0136315Y0088343D01*
X0138250Y0084385D02*
X0137283Y0083417D01*
X0147748Y0083901D02*
X0148231Y0084385D01*
X0149199Y0084385D01*
X0149683Y0083901D01*
X0149683Y0082450D01*
X0150650Y0082450D02*
X0147748Y0082450D01*
X0147748Y0083901D01*
X0148231Y0085397D02*
X0147748Y0085880D01*
X0147748Y0086848D01*
X0148231Y0087331D01*
X0148715Y0087331D01*
X0150650Y0085397D01*
X0150650Y0087331D01*
X0150166Y0088343D02*
X0150650Y0088827D01*
X0150650Y0089794D01*
X0150166Y0090278D01*
X0149683Y0090278D01*
X0149199Y0089794D01*
X0149199Y0089311D01*
X0149199Y0089794D02*
X0148715Y0090278D01*
X0148231Y0090278D01*
X0147748Y0089794D01*
X0147748Y0088827D01*
X0148231Y0088343D01*
X0150650Y0084385D02*
X0149683Y0083417D01*
X0127550Y0133550D02*
X0125081Y0133550D01*
X0123847Y0134784D01*
X0125081Y0136019D01*
X0127550Y0136019D01*
X0127550Y0137233D02*
X0127550Y0139702D01*
X0127550Y0138468D02*
X0123847Y0138468D01*
X0125081Y0137233D01*
X0125698Y0136019D02*
X0125698Y0133550D01*
X0057050Y0137233D02*
X0057050Y0139702D01*
X0036564Y0136019D02*
X0035947Y0135402D01*
D13*
X0055850Y0151501D02*
X0056601Y0150750D01*
X0057351Y0150750D01*
X0058102Y0151501D01*
X0058102Y0155254D01*
X0057351Y0155254D02*
X0058853Y0155254D01*
X0060454Y0155254D02*
X0062706Y0155254D01*
X0063456Y0154503D01*
X0063456Y0153002D01*
X0062706Y0152251D01*
X0060454Y0152251D01*
X0060454Y0150750D02*
X0060454Y0155254D01*
X0065058Y0153753D02*
X0066559Y0155254D01*
X0066559Y0150750D01*
X0065058Y0150750D02*
X0068060Y0150750D01*
X0094995Y0112866D02*
X0097247Y0112866D01*
X0097997Y0112116D01*
X0097997Y0110615D01*
X0097247Y0109864D01*
X0094995Y0109864D01*
X0094995Y0108363D02*
X0094995Y0112866D01*
X0099599Y0111365D02*
X0099599Y0108363D01*
X0099599Y0110615D02*
X0102601Y0110615D01*
X0102601Y0111365D02*
X0102601Y0108363D01*
X0104203Y0108363D02*
X0104203Y0112866D01*
X0106455Y0112866D01*
X0107205Y0112116D01*
X0107205Y0109113D01*
X0106455Y0108363D01*
X0104203Y0108363D01*
X0102601Y0111365D02*
X0101100Y0112866D01*
X0099599Y0111365D01*
X0108807Y0111365D02*
X0109557Y0110615D01*
X0111059Y0110615D01*
X0111809Y0109864D01*
X0111809Y0109113D01*
X0111059Y0108363D01*
X0109557Y0108363D01*
X0108807Y0109113D01*
X0108807Y0111365D02*
X0108807Y0112116D01*
X0109557Y0112866D01*
X0111059Y0112866D01*
X0111809Y0112116D01*
X0103700Y0162400D02*
X0203700Y0162400D01*
X0203700Y0182400D01*
X0103700Y0182400D01*
X0003700Y0182400D01*
X0003700Y0162400D01*
X0103700Y0162400D01*
X0104007Y0218363D02*
X0104007Y0222866D01*
X0102405Y0222116D02*
X0101655Y0222866D01*
X0100153Y0222866D01*
X0099403Y0222116D01*
X0099403Y0219113D01*
X0100153Y0218363D01*
X0101655Y0218363D01*
X0102405Y0219113D01*
X0104007Y0219864D02*
X0107009Y0222866D01*
X0108611Y0222866D02*
X0108611Y0218363D01*
X0111613Y0218363D01*
X0110112Y0220615D02*
X0108611Y0220615D01*
X0108611Y0222866D02*
X0111613Y0222866D01*
X0113215Y0222866D02*
X0116217Y0222866D01*
X0114716Y0222866D02*
X0114716Y0218363D01*
X0107009Y0218363D02*
X0104757Y0220615D01*
X0097801Y0219113D02*
X0097801Y0222116D01*
X0097051Y0222866D01*
X0095549Y0222866D01*
X0094799Y0222116D01*
X0094799Y0219113D01*
X0095549Y0218363D01*
X0097051Y0218363D01*
X0097801Y0219113D01*
X0093197Y0219113D02*
X0092447Y0218363D01*
X0090946Y0218363D01*
X0090195Y0219113D01*
X0090946Y0220615D02*
X0092447Y0220615D01*
X0093197Y0219864D01*
X0093197Y0219113D01*
X0090946Y0220615D02*
X0090195Y0221365D01*
X0090195Y0222116D01*
X0090946Y0222866D01*
X0092447Y0222866D01*
X0093197Y0222116D01*
X0092587Y0036430D02*
X0092587Y0031926D01*
X0095590Y0031926D01*
X0097191Y0031926D02*
X0099443Y0031926D01*
X0100193Y0032677D01*
X0100193Y0035680D01*
X0099443Y0036430D01*
X0097191Y0036430D01*
X0097191Y0031926D01*
X0094088Y0034178D02*
X0092587Y0034178D01*
X0092587Y0036430D02*
X0095590Y0036430D01*
X0101795Y0035680D02*
X0101795Y0032677D01*
X0102545Y0031926D01*
X0104047Y0031926D01*
X0104797Y0032677D01*
X0104797Y0034178D01*
X0103296Y0034178D01*
X0101795Y0035680D02*
X0102545Y0036430D01*
X0104047Y0036430D01*
X0104797Y0035680D01*
X0106399Y0036430D02*
X0106399Y0031926D01*
X0109401Y0031926D01*
X0107900Y0034178D02*
X0106399Y0034178D01*
X0106399Y0036430D02*
X0109401Y0036430D01*
M02*
