G75*
%MOIN*%
%OFA0B0*%
%FSLAX25Y25*%
%IPPOS*%
%LPD*%
%AMOC8*
5,1,8,0,0,1.08239X$1,22.5*
%
%ADD10R,0.05354X0.25433*%
%ADD11R,0.04055X0.25433*%
%ADD12R,0.05354X0.13622*%
%ADD13R,0.04055X0.13622*%
%ADD14R,0.04331X0.03937*%
%ADD15R,0.05000X0.08000*%
D10*
X0012702Y0016133D03*
X0197091Y0016133D03*
D11*
X0190536Y0016133D03*
X0184631Y0016133D03*
X0178725Y0016133D03*
X0172820Y0016133D03*
X0166914Y0016133D03*
X0161009Y0016133D03*
X0155103Y0016133D03*
X0149198Y0016133D03*
X0143292Y0016133D03*
X0137387Y0016133D03*
X0131481Y0016133D03*
X0125576Y0016133D03*
X0119670Y0016133D03*
X0113765Y0016133D03*
X0107859Y0016133D03*
X0101954Y0016133D03*
X0096048Y0016133D03*
X0090143Y0016133D03*
X0084237Y0016133D03*
X0078331Y0016133D03*
X0072426Y0016133D03*
X0066520Y0016133D03*
X0060615Y0016133D03*
X0054709Y0016133D03*
X0048804Y0016133D03*
X0042898Y0016133D03*
X0036993Y0016133D03*
X0031087Y0016133D03*
X0025182Y0016133D03*
X0019276Y0016133D03*
D12*
X0013262Y0123028D03*
X0012662Y0204228D03*
X0197052Y0204228D03*
X0197652Y0123028D03*
D13*
X0191097Y0123028D03*
X0185191Y0123028D03*
X0179286Y0123028D03*
X0173380Y0123028D03*
X0167475Y0123028D03*
X0161569Y0123028D03*
X0155664Y0123028D03*
X0149758Y0123028D03*
X0143853Y0123028D03*
X0137947Y0123028D03*
X0132042Y0123028D03*
X0126136Y0123028D03*
X0120231Y0123028D03*
X0114325Y0123028D03*
X0108420Y0123028D03*
X0102514Y0123028D03*
X0096609Y0123028D03*
X0090703Y0123028D03*
X0084798Y0123028D03*
X0078892Y0123028D03*
X0072987Y0123028D03*
X0067081Y0123028D03*
X0061176Y0123028D03*
X0055270Y0123028D03*
X0049365Y0123028D03*
X0043459Y0123028D03*
X0037554Y0123028D03*
X0031648Y0123028D03*
X0025743Y0123028D03*
X0019837Y0123028D03*
X0019237Y0204228D03*
X0025143Y0204228D03*
X0031048Y0204228D03*
X0036954Y0204228D03*
X0042859Y0204228D03*
X0048765Y0204228D03*
X0054670Y0204228D03*
X0060576Y0204228D03*
X0066481Y0204228D03*
X0072387Y0204228D03*
X0078292Y0204228D03*
X0084198Y0204228D03*
X0090103Y0204228D03*
X0096009Y0204228D03*
X0101914Y0204228D03*
X0107820Y0204228D03*
X0113725Y0204228D03*
X0119631Y0204228D03*
X0125536Y0204228D03*
X0131442Y0204228D03*
X0137347Y0204228D03*
X0143253Y0204228D03*
X0149158Y0204228D03*
X0155064Y0204228D03*
X0160969Y0204228D03*
X0166875Y0204228D03*
X0172780Y0204228D03*
X0178686Y0204228D03*
X0184591Y0204228D03*
X0190497Y0204228D03*
D14*
X0184800Y0078246D03*
X0184800Y0071554D03*
X0178600Y0063846D03*
X0178600Y0057154D03*
X0173000Y0072154D03*
X0173000Y0078846D03*
X0166800Y0063846D03*
X0166800Y0057154D03*
X0161200Y0072154D03*
X0161200Y0078846D03*
X0149400Y0078846D03*
X0149400Y0072154D03*
X0155000Y0063846D03*
X0155000Y0057154D03*
X0143200Y0057154D03*
X0143200Y0063846D03*
X0137000Y0072154D03*
X0137000Y0078846D03*
X0131400Y0063846D03*
X0131400Y0057154D03*
X0125200Y0072154D03*
X0125200Y0078846D03*
X0119600Y0063846D03*
X0119600Y0057154D03*
X0114000Y0072154D03*
X0114000Y0078846D03*
X0102200Y0078846D03*
X0102200Y0072154D03*
X0107800Y0063846D03*
X0107800Y0057154D03*
X0096000Y0057154D03*
X0096000Y0063846D03*
X0090400Y0072154D03*
X0090400Y0078846D03*
X0084200Y0063846D03*
X0084200Y0057154D03*
X0078600Y0072154D03*
X0078600Y0078846D03*
X0066800Y0078846D03*
X0066800Y0072154D03*
X0072400Y0063846D03*
X0072400Y0057154D03*
X0060600Y0057154D03*
X0060600Y0063846D03*
X0055000Y0072154D03*
X0055000Y0078846D03*
X0048800Y0063846D03*
X0048800Y0057154D03*
X0042600Y0072154D03*
X0042600Y0078846D03*
X0037000Y0063846D03*
X0037000Y0057154D03*
X0025200Y0057154D03*
X0025200Y0063846D03*
X0030800Y0072154D03*
X0030800Y0078846D03*
X0019000Y0078846D03*
X0019000Y0072154D03*
D15*
X0018700Y0160900D03*
X0028700Y0160900D03*
X0038700Y0160900D03*
X0048700Y0160900D03*
X0058700Y0160900D03*
X0068700Y0160900D03*
X0078700Y0160900D03*
X0088700Y0160900D03*
X0098700Y0160900D03*
X0108700Y0160900D03*
X0118700Y0160900D03*
X0128700Y0160900D03*
X0138700Y0160900D03*
X0148700Y0160900D03*
X0158700Y0160900D03*
X0168700Y0160900D03*
X0178700Y0160900D03*
X0188700Y0160900D03*
X0198700Y0160900D03*
X0198700Y0183900D03*
X0188700Y0183900D03*
X0178700Y0183900D03*
X0168700Y0183900D03*
X0158700Y0183900D03*
X0148700Y0183900D03*
X0138700Y0183900D03*
X0128700Y0183900D03*
X0118700Y0183900D03*
X0108700Y0183900D03*
X0098700Y0183900D03*
X0088700Y0183900D03*
X0078700Y0183900D03*
X0068700Y0183900D03*
X0058700Y0183900D03*
X0048700Y0183900D03*
X0038700Y0183900D03*
X0028700Y0183900D03*
X0018700Y0183900D03*
X0008700Y0183900D03*
X0008700Y0160900D03*
M02*
