G75*
%MOIN*%
%OFA0B0*%
%FSLAX25Y25*%
%IPPOS*%
%LPD*%
%AMOC8*
5,1,8,0,0,1.08239X$1,22.5*
%
%ADD10C,0.12611*%
%ADD11C,0.03700*%
D10*
X0054800Y0234800D03*
X0154100Y0234800D03*
D11*
X0012800Y0039200D03*
X0019400Y0039500D03*
X0025100Y0039500D03*
X0031100Y0039500D03*
X0037100Y0039500D03*
X0042800Y0039500D03*
X0048800Y0039500D03*
X0054800Y0039500D03*
X0060500Y0039500D03*
X0066500Y0039500D03*
X0072500Y0039500D03*
X0078200Y0039500D03*
X0084200Y0039500D03*
X0090200Y0039500D03*
X0095900Y0039500D03*
X0101900Y0039500D03*
X0107900Y0039500D03*
X0113900Y0039500D03*
X0119600Y0039500D03*
X0125600Y0039500D03*
X0131600Y0039500D03*
X0137300Y0039500D03*
X0143300Y0039500D03*
X0149300Y0039500D03*
X0155000Y0039500D03*
X0161000Y0039500D03*
X0167000Y0039500D03*
X0172700Y0039500D03*
X0178700Y0039500D03*
X0184700Y0039500D03*
X0190700Y0039500D03*
X0190700Y0192500D03*
X0184700Y0192500D03*
X0178700Y0192500D03*
X0172700Y0192500D03*
X0167000Y0192500D03*
X0161000Y0192500D03*
X0155000Y0192500D03*
X0149300Y0192500D03*
X0143300Y0192500D03*
X0137300Y0192500D03*
X0131600Y0192500D03*
X0125600Y0192500D03*
X0119600Y0192500D03*
X0113900Y0192500D03*
X0107900Y0192500D03*
X0101900Y0192500D03*
X0095900Y0192500D03*
X0090200Y0192500D03*
X0084200Y0192500D03*
X0078200Y0192500D03*
X0072500Y0192500D03*
X0066500Y0192500D03*
X0060500Y0192500D03*
X0054800Y0192500D03*
X0048800Y0192500D03*
X0042800Y0192500D03*
X0037100Y0192500D03*
X0031100Y0192500D03*
X0025100Y0192500D03*
X0019400Y0192500D03*
X0012800Y0192500D03*
M02*
